HIERARCHY
ROOT pelvis
{
	OFFSET 0.055597 -33.824966 1.352531
	CHANNELS 6 Xposition Yposition Zposition Zrotation Yrotation Xrotation
	JOINT left_hip
	{
		OFFSET 7.289877 -8.847819 -1.448424
		CHANNELS 3 Zrotation Yrotation Xrotation
		JOINT left_knee
		{
			OFFSET 2.633776 -37.622417 -2.124449
			CHANNELS 3 Zrotation Yrotation Xrotation
			JOINT left_ankle
			{
				OFFSET -0.827589 -38.695080 -2.059698
				CHANNELS 3 Zrotation Yrotation Xrotation
				JOINT left_foot
				{
					OFFSET 2.154786 -4.389101 10.739969
					CHANNELS 3 Zrotation Yrotation Xrotation
					End Site
					{
						OFFSET 0.000000 0.000000 0.000000
					}
				}
			}
		}
	}
	JOINT right_hip
	{
		OFFSET -7.219493 -9.492825 -1.581261
		CHANNELS 3 Zrotation Yrotation Xrotation
		JOINT right_knee
		{
			OFFSET -3.021611 -37.205841 -1.511023
			CHANNELS 3 Zrotation Yrotation Xrotation
			JOINT right_ankle
			{
				OFFSET 0.360309 -37.838560 -1.689252
				CHANNELS 3 Zrotation Yrotation Xrotation
				JOINT right_foot
				{
					OFFSET -1.740333 -4.733413 10.112992
					CHANNELS 3 Zrotation Yrotation Xrotation
					End Site
					{
						OFFSET 0.000000 0.000000 0.000000
					}
				}
			}
		}
	}
	JOINT spine1
	{
		OFFSET -0.546047 10.221239 -2.646125
		CHANNELS 3 Zrotation Yrotation Xrotation
		JOINT spine2
		{
			OFFSET 1.017094 11.716583 -1.027591
			CHANNELS 3 Zrotation Yrotation Xrotation
			JOINT spine3
			{
				OFFSET -0.556256 4.382453 3.204545
				CHANNELS 3 Zrotation Yrotation Xrotation
				JOINT neck
				{
					OFFSET -0.576223 19.407586 -3.996177
					CHANNELS 3 Zrotation Yrotation Xrotation
					JOINT head
					{
						OFFSET 0.877515 14.609154 2.074341
						CHANNELS 3 Zrotation Yrotation Xrotation
						End Site
						{
							OFFSET 0.000000 0.000000 0.000000
						}
					}
				}
				JOINT left_collar
				{
					OFFSET 5.223838 11.427989 -1.797838
					CHANNELS 3 Zrotation Yrotation Xrotation
					JOINT left_shoulder
					{
						OFFSET 8.847861 4.555448 -2.764151
						CHANNELS 3 Zrotation Yrotation Xrotation
						JOINT left_elbow
						{
							OFFSET 27.224420 -5.588281 -2.727877
							CHANNELS 3 Zrotation Yrotation Xrotation
							JOINT left_wrist
							{
								OFFSET 22.742010 0.754229 0.408456
								CHANNELS 3 Zrotation Yrotation Xrotation
								End Site
								{
									OFFSET 0.000000 0.000000 0.000000
								}
							}
						}
					}
				}
				JOINT right_collar
				{
					OFFSET -5.469769 11.025515 -2.447681
					CHANNELS 3 Zrotation Yrotation Xrotation
					JOINT right_shoulder
					{
						OFFSET -9.560346 4.785337 -2.076557
						CHANNELS 3 Zrotation Yrotation Xrotation
						JOINT right_elbow
						{
							OFFSET -26.255708 -5.077782 -2.029933
							CHANNELS 3 Zrotation Yrotation Xrotation
							JOINT right_wrist
							{
								OFFSET -22.811481 0.335400 -0.475552
								CHANNELS 3 Zrotation Yrotation Xrotation
								End Site
								{
									OFFSET 0.000000 0.000000 0.000000
								}
							}
						}
					}
				}
			}
		}
	}
}
MOTION
Frames: 17
Frame Time: 0.033333
-73.749525 97.861466 4.962641 6.847326 -8.678749 -7.451131 -14.785435 -2.801176 -9.874090 16.787001 -5.779147 7.636347 -9.978933 7.992929 1.089987 9.451177 0.402413 -5.244447 14.625868 10.783579 6.165219 -8.232249 2.567323 16.937210 7.916639 -8.459078 -0.055088 -7.618481 -0.630453 -5.302477 6.645811 1.237267 35.535015 1.154335 -1.873148 4.851114 -3.473141 -2.774212 -52.608345 -3.531821 19.583519 -6.973095 4.513478 15.453724 9.546533 54.282494 20.579018 1.659756 -90.422241 -76.422394 26.632259 105.810974 -53.291763 -80.398750 6.762929 24.814644 -11.190994 -69.155319 6.735315 -22.157393 39.775394 61.057995 -39.398766 -107.684227 24.392946 -55.655930 -9.336064 -30.722284 11.957829 
-73.749525 97.861466 4.962641 6.847326 -8.678749 -7.451131 -14.785435 -2.801176 -9.874090 16.787001 -5.779147 7.636347 -9.978933 7.992929 1.089987 9.451177 0.402413 -5.244447 14.625868 10.783579 6.165219 -8.232249 2.567323 16.937210 7.916639 -8.459078 -0.055088 -7.618481 -0.630453 -5.302477 6.645811 1.237267 35.535015 1.154335 -1.873148 4.851114 -3.473141 -2.774212 -52.608345 -3.531821 19.583519 -6.973095 4.513478 15.453724 9.546533 54.282494 20.579018 1.659756 -90.422241 -76.422394 26.632259 105.810974 -53.291763 -80.398750 6.762929 24.814644 -11.190994 -69.155319 6.735315 -22.157393 39.775394 61.057995 -39.398766 -107.684227 24.392946 -55.655930 -9.336064 -30.722284 11.957829 
-73.329756 97.853577 4.723372 6.229053 -13.812054 -7.811142 -14.977987 -3.057916 -9.607406 16.947044 -6.010674 7.238342 -9.948472 7.940228 1.185481 9.441738 0.396729 -5.250573 14.842756 10.779717 6.120412 -8.281926 2.462721 17.451113 7.849974 -8.438085 -0.075429 -7.598286 -0.634144 -5.324297 6.813973 1.212469 35.453259 1.018723 -1.947193 5.153754 -3.905975 -2.702397 -52.554443 -3.652017 19.751165 -7.120411 5.241256 16.352924 10.187727 53.931736 21.989435 2.601722 -102.740990 -71.460571 35.599747 117.540512 -53.581287 -89.337631 8.320473 24.389837 -9.009439 -68.495964 6.650679 -21.728548 37.772583 61.044846 -41.095581 -106.304214 24.625299 -53.239590 -9.768593 -31.212727 12.338710 
-72.909987 97.845719 4.484104 5.579021 -18.995176 -8.053418 -15.172895 -3.312894 -9.338998 17.110666 -6.240173 6.839043 -9.918191 7.887493 1.280894 9.431916 0.399484 -5.256034 15.059649 10.776234 6.075601 -8.334064 2.359182 17.965271 7.783301 -8.417162 -0.095843 -7.578154 -0.636761 -5.346263 6.982232 1.188143 35.371346 0.882383 -2.019813 5.456808 -4.338596 -2.629930 -52.501648 -3.773304 19.918339 -7.268460 5.994882 17.238218 10.853395 53.577805 23.417414 3.525325 -109.897171 -65.985374 39.026760 128.970306 -52.378548 -98.101341 9.846043 23.889153 -6.852174 -67.837975 6.556637 -21.301710 35.779430 60.995724 -42.788387 -104.893768 24.788837 -50.808826 -10.210812 -31.699326 12.728391 
-72.490210 97.837830 4.244835 4.878772 -24.139490 -8.167994 -15.370152 -3.566146 -9.068882 17.277840 -6.467676 6.438394 -9.888119 7.834651 1.376238 9.422462 0.394228 -5.262149 15.276556 10.773050 6.030757 -8.388599 2.256995 18.479549 7.716637 -8.396230 -0.116552 -7.557993 -0.639693 -5.368137 7.150555 1.164324 35.289299 0.745263 -2.091223 5.760148 -4.771304 -2.556026 -52.449970 -3.895601 20.085066 -7.417238 6.774401 18.108175 11.543190 53.220112 24.859453 4.429064 -114.626221 -60.459595 39.673210 139.028488 -49.866508 -105.596405 11.332568 23.315645 -4.728813 -67.181587 6.453268 -20.877218 33.801933 60.910912 -44.471146 -103.460838 24.882456 -48.374832 -10.662736 -32.181862 13.126879 
-73.126166 97.776154 4.862291 5.485343 -25.547274 -7.842061 -15.977050 -3.726709 -9.059829 16.982685 -6.396746 6.671237 -9.805178 7.784663 1.487804 9.381756 0.390242 -5.265870 15.511958 10.443365 5.714576 -8.205795 1.962265 18.915674 7.607382 -8.382868 -0.181409 -7.541428 -0.631694 -5.375593 7.199434 1.114242 35.078304 0.503268 -2.169366 6.259711 -5.452385 -2.443652 -52.416126 -4.201952 19.864691 -6.886057 8.156108 18.922571 11.881510 48.297344 25.672522 4.705273 -114.653557 -50.823090 39.226715 148.795853 -49.536476 -112.569481 13.364404 21.657988 -0.821904 -65.164886 6.669600 -20.038988 29.706045 58.773209 -46.932430 -100.037018 25.088140 -44.385159 -9.257038 -32.827309 12.841789 
-73.762129 97.714478 5.479748 6.089649 -26.962711 -7.548580 -16.584166 -3.887113 -9.047363 16.688366 -6.323523 6.903288 -9.722463 7.734429 1.599352 9.341329 0.380214 -5.270154 15.750153 10.116573 5.395687 -8.027635 1.665371 19.349972 7.498127 -8.369758 -0.246327 -7.524858 -0.623840 -5.383082 7.248770 1.064574 34.867222 0.259653 -2.243574 6.760077 -6.133829 -2.329383 -52.385029 -4.511492 19.651270 -6.352229 9.560349 19.721712 12.261656 43.261631 26.523500 4.822148 -115.104866 -40.906792 38.473686 158.082184 -48.127216 -119.183517 15.190554 19.842993 2.980753 -63.147594 6.828579 -19.186317 26.122988 56.514374 -48.831665 -96.554359 24.960777 -40.370258 -7.823518 -33.461224 12.518778 
-74.398085 97.652802 6.097204 6.693227 -28.382771 -7.289213 -17.191408 -4.047106 -9.031490 16.394915 -6.248090 7.134624 -9.639997 7.683887 1.710669 9.300770 0.373119 -5.274134 15.991137 9.792694 5.074028 -7.853237 1.371421 19.782011 7.388888 -8.356894 -0.311765 -7.508254 -0.616508 -5.390473 7.298542 1.015276 34.656052 0.014862 -2.313629 7.260911 -6.814605 -2.215091 -52.356621 -4.824144 19.444916 -5.816125 10.986280 20.502550 12.682868 38.185314 27.372841 4.770687 -116.115860 -31.296167 37.544487 166.319244 -45.792057 -124.857491 16.792999 17.901167 6.642127 -61.135941 6.928950 -18.325596 22.985037 54.178104 -50.237850 -93.079865 24.503674 -36.414169 -6.363046 -34.081295 12.157985 
-74.274153 97.543961 5.590993 6.574117 -27.989689 -7.634672 -17.442341 -4.166744 -8.990142 16.075544 -6.353931 7.104609 -9.618987 7.677409 1.783401 9.269173 0.366053 -5.267231 15.961020 9.256120 4.864941 -7.484696 0.970031 19.921833 7.334254 -8.363383 -0.364267 -7.501732 -0.611517 -5.382526 7.121160 0.917897 34.256035 -0.151637 -2.355452 7.365860 -7.148856 -2.085755 -51.800526 -5.110787 19.567205 -4.684368 11.387194 22.329880 13.004326 33.905792 26.886370 2.743123 -114.902847 -30.785402 38.276836 166.421173 -46.699127 -124.930550 16.793474 17.134281 7.793110 -59.176647 7.163238 -17.838194 20.846699 52.618771 -50.204956 -91.766098 25.089024 -35.756107 -5.527956 -34.205471 12.722096 
-74.150221 97.435120 5.084783 6.451615 -27.598745 -7.981997 -17.693459 -4.285964 -8.947775 15.756093 -6.460069 7.075693 -9.598019 7.670912 1.855984 9.237685 0.356467 -5.260534 15.933414 8.719377 4.656364 -7.116847 0.572059 20.056267 7.279627 -8.369994 -0.416640 -7.495134 -0.607991 -5.374436 6.945467 0.818094 33.856598 -0.299561 -2.397913 7.470649 -7.481230 -1.950006 -51.245911 -5.394670 19.707216 -3.553370 11.807346 24.155424 13.354396 29.701937 26.163460 0.806888 -113.698074 -30.305441 39.034191 166.531540 -47.606281 -125.008591 16.770382 16.374081 8.945133 -57.213776 7.364672 -17.335178 18.834719 51.061794 -49.985043 -90.439362 25.649715 -35.068573 -4.692287 -34.345825 13.281756 
-74.026297 97.326280 4.578573 6.325766 -27.210028 -8.331238 -17.944750 -4.404797 -8.904313 15.436563 -6.566497 7.048022 -9.577068 7.664378 1.928740 9.206159 0.347632 -5.253726 15.908324 8.182633 4.448279 -6.750496 0.172972 20.185528 7.224979 -8.376780 -0.468538 -7.488531 -0.604436 -5.366316 6.771482 0.715896 33.457817 -0.457315 -2.439201 7.575852 -7.811513 -1.808095 -50.692970 -5.675480 19.864750 -2.424397 12.248409 25.974873 13.734157 25.627054 25.225101 -0.986739 -112.502609 -29.858173 39.813381 166.650696 -48.513039 -125.091927 16.723743 15.621763 10.097326 -55.252300 7.531850 -16.820032 16.935244 49.522060 -49.598209 -89.100975 26.183979 -34.353088 -3.856671 -34.502045 13.835926 
-74.316733 97.236848 4.250898 6.529153 -26.903645 -8.164464 -18.203239 -4.373821 -9.072518 14.814975 -6.488217 7.380630 -9.567992 7.666948 1.941411 9.177727 0.345303 -5.257160 15.637778 7.430954 3.569651 -6.065692 -0.497136 20.430882 7.204982 -8.377396 -0.528365 -7.504071 -0.600286 -5.363748 6.621292 0.425566 33.306244 -0.592491 -2.551279 7.507748 -8.179127 -1.736704 -50.083008 -6.088829 20.137844 -1.005553 12.613655 27.886017 14.090418 22.465734 24.017025 -2.693571 -111.211777 -30.504887 40.847008 166.803848 -49.333031 -125.656952 16.116877 14.834031 11.852007 -53.426746 7.685187 -16.467545 14.624998 47.912949 -49.301968 -88.682289 26.973131 -34.383160 -3.919710 -33.896275 14.424129 
-74.607168 97.147416 3.923224 6.732907 -26.598505 -7.995218 -18.462019 -4.344289 -9.241004 14.194852 -6.402975 7.711475 -9.558930 7.669436 1.954069 9.149291 0.342988 -5.260515 15.390048 6.673008 2.697345 -5.385334 -1.173069 20.660255 7.182569 -8.380175 -0.554998 -7.519576 -0.596843 -5.361080 6.472510 0.134502 33.156197 -0.727381 -2.663630 7.440166 -8.546021 -1.657710 -49.473907 -6.494064 20.441175 0.406218 13.000153 29.796078 14.475313 19.417973 22.661293 -4.253740 -109.902397 -31.200190 41.846622 166.974731 -50.153927 -126.229401 15.483560 14.095854 13.626404 -51.598438 7.816386 -16.105520 12.424594 46.321510 -48.815769 -88.257439 27.762852 -34.400127 -3.971399 -33.292244 15.011020 
-74.897612 97.057984 3.595549 6.936998 -26.294676 -7.823558 -18.721058 -4.316476 -9.409759 13.576376 -6.310829 8.040416 -9.549846 7.672020 1.966814 9.120808 0.341937 -5.263823 15.165198 5.909650 1.831773 -4.709365 -1.854188 20.873510 7.161856 -8.381521 -0.604949 -7.535078 -0.593336 -5.358470 6.325089 -0.157360 33.007671 -0.862091 -2.776302 7.373103 -8.912110 -1.571129 -48.865971 -6.889538 20.774282 1.813892 13.409921 31.700306 14.890451 16.499693 21.180626 -5.648644 -108.575706 -31.939999 42.806648 167.163712 -50.975166 -126.809586 14.825290 13.410496 15.414721 -49.771286 7.924625 -15.736164 10.323886 44.766815 -48.160736 -87.826027 28.552492 -34.403774 -4.012011 -32.690262 15.596567 
-75.284155 96.917924 3.326597 7.336431 -27.284887 -7.775475 -18.843468 -4.158697 -9.691540 13.067658 -6.146684 8.121807 -9.554261 7.651092 2.030204 9.096338 0.333856 -5.252789 14.900163 5.589818 1.473003 -4.255477 -2.023099 20.880861 7.120551 -8.377496 -0.686646 -7.531456 -0.592339 -5.345948 6.174328 -0.337062 33.167381 -1.085757 -2.891071 7.270456 -9.478193 -1.607105 -48.907799 -7.619830 20.920113 2.637271 13.823539 32.082695 14.381278 13.685642 19.115416 -6.873123 -106.784172 -32.744286 43.236744 166.497772 -52.390213 -126.449104 14.307172 12.814971 16.080326 -48.198483 8.656808 -15.561485 7.987949 43.372795 -47.740334 -87.151649 28.940340 -35.236908 -3.102291 -32.340137 15.670726 
-75.670698 96.777863 3.057645 7.739742 -28.275965 -7.742980 -18.967497 -4.002323 -9.974034 12.559569 -5.981185 8.200253 -9.558722 7.630220 2.093704 9.071809 0.327285 -5.241700 14.639214 5.266992 1.116943 -3.801470 -2.192249 20.885563 7.079376 -8.373487 -0.770263 -7.527796 -0.592149 -5.333289 6.022618 -0.515783 33.328045 -1.309074 -3.006691 7.168718 -10.044313 -1.643907 -48.948906 -8.348983 21.089458 3.456709 14.235366 32.473351 13.878512 10.992776 16.948431 -7.886769 -104.960587 -33.571571 43.606693 165.783936 -53.801811 -126.032692 13.779162 12.232929 16.757263 -46.611919 9.379093 -15.346017 5.729530 42.006271 -47.165741 -86.472031 29.350666 -36.059666 -2.198496 -31.992088 15.758069 
-76.057242 96.637803 2.788693 8.147471 -29.266991 -7.726429 -19.093149 -3.847206 -10.257175 12.052168 -5.814337 8.275739 -9.563231 7.609380 2.157168 9.047301 0.319894 -5.230667 14.382422 4.941036 0.764929 -3.347363 -2.361365 20.887552 7.038212 -8.369645 -0.853750 -7.524171 -0.591151 -5.320745 5.869837 -0.693810 33.489658 -1.531993 -3.123048 7.067868 -10.610296 -1.681599 -48.989265 -9.076418 21.282038 4.270753 14.645391 32.871948 13.382601 8.421360 14.713108 -8.684977 -103.106949 -34.417027 43.911400 165.016541 -55.207275 -125.554855 13.241367 11.665127 17.444859 -45.013283 10.087992 -15.090453 3.545648 40.684082 -46.452946 -85.787514 29.782646 -36.870472 -1.300702 -31.646717 15.858175 
